<svg version="1.1"
  aria-labelledby="title" aria-describedby="svgDesc" role="img"
  width="662.000000pt" height="662.000000pt" viewBox="0 0 662.000000 662.000000">
<title id="title">Luke Coy</title>

<g transform="translate(0.000000,662.000000) scale(0.100000,-0.100000)"
fill="#000000" stroke="none">
<path d="M0 3310 l0 -3310 1760 0 c1081 0 1760 4 1760 9 0 13 -54 51 -72 51
-8 0 -18 3 -21 7 -11 10 13 33 34 33 11 0 19 5 19 11 0 6 -10 10 -22 9 -36 -3
-44 0 -29 9 12 8 9 11 -14 17 -21 5 -31 3 -40 -10 -7 -9 -18 -16 -26 -16 -17
1 -51 25 -49 36 1 5 -6 11 -16 14 -12 5 -14 9 -6 14 20 12 13 24 -19 31 -22 5
-34 15 -41 36 -5 16 -17 29 -25 29 -8 0 -17 8 -20 18 -2 10 -19 24 -36 32 -29
12 -30 13 -10 17 30 6 51 32 34 43 -9 5 -10 10 -3 14 13 8 5 34 -16 55 -12 12
-11 17 9 32 l22 17 -21 6 c-29 9 -30 46 -2 46 12 0 24 10 30 24 9 25 42 42 60
31 5 -3 10 1 10 9 0 9 8 16 19 16 11 0 23 4 26 10 3 5 19 10 35 10 22 0 28 4
24 15 -5 12 0 14 24 9 17 -4 41 0 58 9 16 8 56 18 89 22 33 4 78 11 100 17 22
6 55 10 73 10 17 -1 32 2 32 7 0 5 21 12 48 15 81 12 149 44 161 76 8 24 7 30
-7 33 -9 3 2 5 26 6 30 1 42 5 42 16 0 11 -12 15 -46 15 -41 0 -51 5 -86 41
l-39 40 23 19 c13 11 19 19 14 20 -5 0 -3 7 4 15 10 12 9 15 -8 15 -11 0 -22
-5 -24 -12 -2 -6 -10 -8 -16 -4 -22 13 -12 47 24 81 19 19 37 40 38 48 2 15
41 67 50 67 10 0 86 77 86 87 0 6 6 16 14 23 8 6 16 21 18 33 2 12 9 21 16 19
6 -1 12 4 12 12 0 7 6 19 14 25 15 13 28 61 16 61 -4 0 1 17 11 37 13 25 15
39 8 44 -6 4 0 14 17 26 42 31 27 53 -37 53 -44 0 -50 -2 -39 -15 10 -12 7
-19 -17 -39 -15 -14 -33 -26 -39 -26 -6 0 -19 -20 -28 -44 -9 -24 -24 -47 -31
-50 -8 -3 -15 -14 -15 -24 0 -10 -5 -23 -12 -30 -9 -9 -9 -12 2 -12 9 0 4 -10
-13 -28 -15 -15 -27 -33 -27 -40 0 -7 -7 -12 -15 -12 -9 0 -18 -7 -21 -15 -4
-8 -13 -15 -21 -15 -7 0 -13 -6 -12 -12 3 -25 -1 -38 -13 -38 -14 0 -85 -77
-93 -101 -3 -9 -15 -21 -28 -27 -12 -7 -29 -16 -37 -21 -8 -5 -31 -16 -51 -25
-20 -9 -39 -24 -41 -34 -4 -12 -21 -23 -49 -30 -51 -14 -63 -21 -71 -43 -4 -9
-32 -23 -66 -33 -33 -9 -65 -23 -72 -31 -6 -7 -18 -11 -26 -8 -8 3 -14 2 -12
-3 4 -16 -22 -54 -38 -54 -9 0 -27 -9 -41 -20 -14 -11 -31 -20 -38 -20 -7 0
-18 -7 -25 -15 -7 -8 -21 -15 -31 -15 -11 0 -19 -4 -19 -10 0 -5 -8 -10 -19
-10 -10 0 -24 -7 -31 -15 -7 -8 -21 -15 -31 -15 -13 0 -19 -7 -19 -21 0 -11
-4 -18 -9 -15 -5 3 -33 -7 -62 -23 -75 -41 -176 -91 -183 -91 -4 0 -24 -11
-44 -25 -20 -14 -72 -37 -114 -50 -43 -13 -87 -34 -98 -45 -11 -11 -32 -20
-46 -20 -24 0 -63 -15 -74 -29 -8 -9 -72 -33 -96 -35 -11 -1 -25 -5 -31 -9 -6
-4 -18 -4 -27 -1 -9 3 -16 2 -16 -4 0 -15 -52 -22 -193 -28 -112 -4 -136 -3
-188 15 -32 12 -71 21 -85 21 -14 0 -22 4 -19 10 3 6 -1 7 -9 4 -9 -4 -18 0
-22 9 -3 8 -17 18 -32 22 -28 7 -127 106 -138 138 -3 9 -10 17 -15 17 -5 0 -9
15 -9 34 0 19 -4 38 -10 41 -5 3 -17 32 -26 63 -9 31 -20 64 -25 72 -4 8 -12
41 -17 73 l-9 58 36 15 c25 11 55 14 98 11 48 -4 65 -1 75 11 11 12 11 16 0
20 -7 2 -19 10 -27 19 -26 25 -71 31 -177 24 -95 -7 -131 -5 -101 6 7 3 13 12
12 21 0 10 -3 12 -5 5 -4 -8 -18 -6 -50 8 -25 10 -55 19 -67 19 -20 0 -20 0
-1 15 19 14 19 14 -3 15 -12 0 -23 -6 -26 -12 -7 -19 -34 20 -42 59 -3 18 -10
33 -16 33 -6 0 -29 9 -52 19 -70 32 -121 148 -75 172 15 8 22 8 28 0 3 -7 14
-9 22 -6 22 9 94 -12 114 -33 14 -14 45 -18 173 -23 86 -3 208 -13 271 -22
143 -20 140 -20 140 -3 0 20 -55 36 -128 39 -33 1 -58 5 -55 10 2 4 -12 7 -32
7 -20 0 -50 7 -67 16 -16 9 -54 18 -84 21 -30 3 -54 10 -54 16 0 5 -9 7 -21 4
-34 -9 -85 19 -103 58 -17 35 -31 44 -38 24 -3 -8 -13 -7 -33 4 l-30 16 28 1
c16 0 25 4 22 10 -7 12 -92 50 -112 50 -8 0 -37 7 -64 16 -55 18 -69 39 -69
100 0 59 33 103 78 104 12 0 22 -4 22 -10 0 -23 32 -7 81 40 49 47 55 50 108
51 31 1 67 4 81 8 21 7 17 9 -25 14 -27 4 -116 9 -197 13 -114 5 -148 4 -148
-6 0 -17 -87 -4 -120 18 -14 9 -28 15 -32 14 -5 -1 -8 3 -8 8 0 6 -9 10 -19
10 -10 0 -21 7 -25 15 -3 8 -14 15 -25 15 -25 0 -78 61 -104 119 -11 25 -22
73 -25 108 -7 93 16 160 85 251 18 24 33 49 33 57 0 7 7 18 15 25 8 6 30 40
50 73 40 69 52 90 77 128 25 37 84 158 192 390 19 42 42 79 51 82 8 4 15 12
15 18 0 7 17 35 38 63 38 51 82 135 82 157 0 6 9 26 20 45 l21 32 97 -40 c53
-22 106 -47 117 -54 11 -7 52 -24 91 -37 88 -30 130 -65 138 -116 3 -21 13
-44 21 -51 8 -7 15 -25 15 -41 0 -16 5 -29 10 -29 6 0 10 -6 10 -13 0 -7 8
-19 19 -26 15 -11 17 -19 8 -46 -8 -26 -4 -46 19 -110 24 -65 41 -91 99 -152
67 -71 115 -103 156 -103 11 0 19 -4 19 -10 0 -5 12 -10 28 -10 28 0 52 33 52
74 0 12 12 29 26 40 22 15 32 17 60 8 26 -8 36 -7 45 4 6 8 17 14 23 14 25 1
60 39 61 67 0 27 2 28 44 27 30 -1 46 -6 53 -18 12 -21 52 -38 73 -30 19 8 20
34 0 34 -8 0 -15 6 -15 14 0 16 -21 26 -54 26 -12 0 -26 4 -32 9 -5 5 -32 14
-61 20 -28 6 -81 24 -117 41 -37 16 -70 30 -74 30 -4 0 -18 10 -32 23 -14 13
-33 26 -42 30 -10 3 -18 11 -18 17 0 5 -7 10 -15 10 -22 0 -38 46 -24 71 10
19 12 20 36 4 16 -11 46 -17 77 -17 52 0 166 -36 196 -62 8 -8 47 -28 85 -45
39 -18 78 -36 88 -41 24 -14 22 5 -4 31 -11 11 -19 22 -17 25 6 6 165 17 221
15 26 0 47 4 47 9 0 6 -24 25 -52 44 -29 18 -64 47 -78 63 -14 17 -43 40 -66
51 -22 11 -47 28 -54 37 -15 19 -58 39 -76 37 -6 -1 -19 7 -29 18 -10 11 -24
20 -30 20 -7 0 -38 24 -69 54 -52 51 -56 53 -56 29 0 -23 -3 -25 -32 -19 -34
7 -78 42 -78 62 0 19 -50 75 -61 68 -6 -3 -27 2 -47 12 -20 10 -57 19 -82 19
-25 1 -55 7 -65 12 -11 6 -45 14 -75 17 -80 10 -162 26 -185 36 -45 19 -85 28
-104 23 -13 -3 -21 -1 -21 7 0 7 -16 11 -47 9 -52 -2 -93 7 -93 22 0 5 -12 8
-27 7 -60 -4 -83 2 -83 20 0 11 -12 22 -31 29 -24 9 -29 16 -24 32 4 13 0 23
-12 30 -15 8 -16 13 -5 28 24 35 25 46 7 59 -20 15 -45 3 -45 -22 0 -8 -7 -14
-16 -14 -14 0 -15 -7 -10 -39 5 -33 3 -39 -13 -44 -14 -3 -18 -1 -14 9 3 8 -1
14 -9 14 -23 0 -68 24 -68 37 0 6 6 14 12 16 7 3 2 6 -12 7 -31 1 -65 43 -87
107 -9 26 -20 57 -25 69 -6 11 -11 39 -12 62 -1 23 -5 44 -8 48 -4 3 -3 17 3
31 5 13 7 34 3 47 -5 21 12 45 60 84 10 8 14 21 11 31 -6 20 59 93 79 89 8 -2
30 12 50 30 38 34 42 50 37 146 -2 31 2 51 9 56 9 6 13 45 12 139 0 106 3 131
14 131 17 0 19 26 2 34 -10 5 -10 7 -1 12 7 3 13 17 13 30 0 13 5 33 12 44 7
10 9 23 5 27 -5 4 -12 1 -17 -7 -8 -13 -10 -12 -10 2 0 9 14 27 31 39 30 21
31 25 27 77 -6 66 8 129 34 158 10 12 18 27 16 34 -5 23 53 45 127 47 102 2
147 13 173 41 22 23 28 24 80 17 116 -17 161 -12 245 29 43 20 88 36 100 34
21 -3 20 -5 -12 -35 -18 -17 -40 -29 -47 -26 -8 3 -14 0 -14 -6 0 -7 14 -11
33 -10 17 1 43 -3 57 -8 14 -5 45 -8 70 -5 42 4 44 3 25 -11 -48 -37 28 -46
245 -29 80 7 129 7 137 0 7 -6 25 -6 50 0 21 6 59 13 85 17 34 4 46 10 42 20
-14 37 129 60 207 34 44 -15 44 -16 29 -34 -16 -19 8 -30 50 -21 17 3 30 1 30
-4 0 -11 25 -25 63 -34 22 -5 27 -3 27 13 0 22 43 36 102 32 32 -2 39 1 47 22
6 15 19 27 33 29 18 2 24 10 26 39 4 52 -28 59 -79 18 -21 -16 -40 -25 -43
-20 -3 5 -18 12 -33 16 -15 3 -37 18 -50 33 -24 28 -31 62 -13 62 6 0 10 -4
10 -10 0 -5 12 -7 27 -5 16 3 45 6 66 9 22 2 44 12 52 22 14 19 16 24 19 54 0
8 7 14 14 12 6 -1 12 6 12 16 0 10 5 23 12 30 13 13 79 17 77 5 -4 -27 3 -45
15 -40 8 3 31 1 52 -5 31 -8 39 -7 46 7 8 13 18 15 48 10 21 -4 40 -2 43 2 9
15 89 15 99 1 7 -10 11 -9 19 5 5 9 17 17 25 17 8 0 17 7 20 15 4 8 11 12 16
9 6 -4 14 0 19 7 6 10 11 11 19 3 16 -16 3 -38 -40 -65 -22 -13 -40 -28 -40
-32 0 -5 6 -5 13 -1 6 4 3 -3 -8 -15 -18 -21 -20 -21 -26 -4 -5 11 -8 13 -8 4
-1 -8 -9 -20 -18 -27 -17 -12 -17 -13 3 -14 12 0 28 -7 35 -16 11 -14 10 -18
-5 -30 -32 -23 -13 -45 32 -38 28 4 41 2 51 -10 7 -9 26 -16 41 -16 15 0 34
-8 43 -18 20 -22 23 -66 4 -59 -8 3 -17 -8 -23 -28 -13 -40 -1 -77 21 -69 8 3
15 2 15 -2 0 -14 -46 -54 -61 -54 -34 -1 28 -30 63 -30 26 0 38 -4 38 -14 0
-8 9 -18 20 -21 21 -7 37 -46 25 -64 -3 -6 -15 -11 -26 -11 -21 0 -26 -26 -6
-33 9 -3 9 -7 -2 -20 -12 -15 -11 -24 4 -62 9 -25 23 -46 31 -46 8 -1 20 -2
27 -3 6 -1 11 6 9 15 -3 19 13 33 46 43 13 5 22 3 22 -3 0 -6 -11 -11 -24 -11
-19 0 -25 -6 -29 -32 -2 -19 1 -37 7 -41 6 -5 2 -7 -11 -4 -19 4 -23 1 -23
-22 0 -21 6 -29 32 -36 24 -8 32 -16 34 -37 1 -15 -1 -30 -6 -33 -5 -3 -7 -12
-3 -20 3 -10 -1 -15 -12 -15 -10 0 -15 -6 -13 -17 2 -10 11 -17 20 -15 9 1 28
-8 42 -21 23 -21 24 -26 11 -37 -19 -16 -10 -30 21 -30 15 0 24 -6 24 -15 0
-8 9 -15 20 -15 32 0 23 -15 -10 -16 -17 -1 -34 -4 -38 -8 -11 -11 35 -81 51
-78 10 1 16 -11 21 -44 8 -65 8 -72 -6 -70 -7 0 -15 -3 -17 -9 -2 -5 -11 -21
-21 -35 -10 -14 -20 -36 -21 -50 -3 -16 -12 -26 -29 -30 -17 -4 -21 -8 -12
-14 16 -10 16 -49 0 -44 -7 3 -17 14 -23 26 -11 25 -39 37 -57 26 -8 -5 -5
-10 9 -15 17 -6 22 -20 28 -71 8 -60 8 -62 17 -29 9 31 10 32 23 15 12 -16 14
-17 15 -3 0 9 7 22 15 29 8 7 15 21 15 31 0 11 5 19 11 19 5 0 9 -8 8 -17 -1
-10 -1 -27 0 -38 2 -19 2 -19 15 -2 10 13 12 27 6 48 -8 26 -6 30 18 35 42 9
49 12 28 13 -20 1 -20 1 0 16 19 15 19 15 -4 34 l-22 20 22 3 c19 2 25 13 34
53 11 52 8 79 -7 69 -11 -6 -12 7 -1 21 4 6 19 16 33 24 17 8 25 19 22 30 -6
22 67 117 77 101 5 -8 12 -5 24 11 9 13 17 19 17 14 1 -6 2 -17 3 -25 0 -8 8
-13 16 -12 83 20 92 12 64 -53 -18 -44 -37 -65 -58 -65 -8 0 -18 -9 -21 -20
-3 -11 -13 -20 -21 -20 -8 0 -14 -6 -14 -14 0 -8 -7 -17 -16 -20 -9 -3 -14
-13 -11 -20 3 -8 -1 -17 -9 -20 -8 -3 -14 -16 -14 -30 0 -14 -4 -28 -10 -31
-6 -3 -10 -20 -10 -36 0 -17 4 -28 9 -25 5 3 11 -4 15 -17 9 -34 8 -37 -13
-37 -11 0 -23 -4 -26 -10 -3 -5 -2 -10 3 -10 6 0 9 -8 8 -17 -1 -12 5 -17 17
-15 13 2 17 -4 17 -27 0 -38 18 -49 26 -16 9 36 34 14 34 -30 0 -18 7 -38 15
-45 8 -7 15 -27 15 -45 0 -36 36 -125 50 -125 13 0 12 7 0 31 -14 25 -3 44 16
28 18 -15 18 -55 0 -62 -8 -3 -16 -18 -18 -34 -3 -32 -21 -34 -26 -3 -5 30
-22 24 -22 -7 0 -36 13 -55 32 -48 8 3 21 -1 28 -10 17 -21 30 -19 30 5 0 11
-7 20 -15 20 -18 0 -18 -1 -3 41 14 42 31 59 55 59 11 0 24 5 30 11 8 8 15 4
27 -12 9 -13 16 -18 16 -11 0 8 8 10 25 6 15 -4 25 -2 25 5 0 6 -10 11 -22 11
-21 1 -21 2 -5 11 11 7 16 17 12 29 -4 12 0 22 11 28 21 12 12 62 -11 62 -9 0
-15 10 -15 26 0 14 -4 23 -8 20 -5 -3 -6 8 -4 25 2 16 9 29 14 29 6 0 7 -11 4
-25 -4 -14 -2 -25 4 -25 23 0 49 -34 44 -57 -5 -19 -2 -23 19 -23 31 0 51 -23
42 -50 -4 -11 -2 -20 4 -20 6 0 11 5 11 10 0 17 18 11 23 -7 4 -14 5 -13 6 4
1 18 6 22 29 21 15 -1 36 -8 47 -15 24 -16 61 -17 71 -2 8 13 -16 31 -33 24
-7 -2 -13 7 -15 23 -2 19 -9 27 -23 27 -15 0 -20 8 -23 42 -2 22 1 44 7 48 6
3 11 1 11 -5 0 -6 5 -8 11 -4 7 4 7 10 1 16 -7 7 -4 21 11 42 12 17 23 33 24
34 5 11 43 -42 43 -60 0 -12 -3 -18 -7 -15 -9 10 -43 -45 -36 -57 4 -6 6 -25
5 -44 -2 -24 1 -33 10 -30 9 3 12 22 11 56 -2 51 -2 52 27 52 17 0 33 1 36 3
4 1 11 -14 18 -33 7 -24 17 -35 31 -36 35 -2 38 -4 26 -18 -13 -16 1 -32 19
-21 5 3 18 2 27 -3 28 -15 86 8 94 38 6 23 7 22 8 -7 1 -27 -3 -33 -19 -33
-11 0 -20 -5 -20 -10 0 -6 8 -10 17 -8 14 2 17 -4 14 -34 -1 -22 2 -38 8 -38
6 0 11 14 11 30 0 35 15 40 23 8 4 -13 0 -29 -8 -38 -9 -10 -12 -29 -8 -58 6
-42 29 -68 76 -85 10 -4 16 -11 13 -15 -3 -5 0 -25 6 -45 9 -28 17 -37 34 -37
31 0 38 -36 11 -55 -14 -10 -17 -18 -11 -27 11 -16 11 -38 0 -57 -6 -10 -2
-20 14 -33 18 -15 20 -21 10 -33 -10 -12 -10 -21 -1 -41 12 -28 7 -44 -15 -44
-16 0 -19 -21 -3 -37 7 -7 2 -15 -16 -27 -14 -9 -23 -22 -19 -27 4 -7 10 -7
17 0 17 17 38 13 35 -6 -2 -13 9 -22 42 -33 25 -9 64 -28 86 -43 40 -27 41
-30 43 -84 0 -31 6 -62 12 -69 21 -25 23 -137 4 -173 -12 -24 -14 -36 -6 -44
21 -21 10 -62 -48 -181 -32 -67 -62 -132 -66 -146 -4 -14 -11 -29 -15 -35 -4
-5 -10 -23 -14 -38 -4 -16 -34 -85 -67 -153 -52 -106 -71 -135 -132 -195 -63
-63 -109 -100 -169 -135 -11 -7 -51 -40 -89 -75 -73 -66 -103 -82 -204 -105
-139 -31 -293 1 -375 78 -14 13 -39 31 -56 39 l-31 16 -17 -41 c-10 -23 -23
-44 -30 -48 -6 -5 -2 -8 12 -8 13 0 35 -11 50 -25 15 -14 58 -37 95 -51 71
-27 69 -27 240 -8 39 4 57 3 57 -5 0 -6 -9 -11 -21 -11 -30 0 -18 -24 14 -28
31 -4 61 -45 52 -72 -4 -14 -2 -20 9 -20 9 0 16 -4 16 -10 0 -5 6 -10 14 -10
8 0 18 -10 22 -22 11 -35 8 -129 -4 -137 -5 -3 -13 -23 -17 -44 -4 -20 -10
-37 -14 -37 -3 0 -7 -10 -8 -22 -2 -23 -10 -74 -19 -116 -2 -13 -9 -20 -15
-17 -5 4 -8 3 -7 -2 2 -4 -4 -23 -11 -41 -11 -27 -12 -35 -2 -42 10 -5 10 -9
2 -14 -16 -10 -38 -66 -45 -117 -16 -102 -30 -149 -53 -173 -13 -15 -21 -31
-18 -36 4 -6 -3 -21 -13 -35 -11 -14 -18 -33 -15 -43 2 -10 -10 -43 -27 -72
-42 -71 -50 -116 -22 -124 17 -6 20 -13 15 -44 -3 -20 -11 -44 -17 -52 -7 -8
-18 -37 -25 -65 -7 -27 -18 -57 -25 -65 -7 -8 -16 -23 -19 -32 -4 -10 -16 -18
-27 -18 -11 0 -20 -7 -20 -15 0 -8 7 -15 15 -15 24 0 17 -18 -7 -22 -24 -3
-27 -19 -13 -52 6 -13 2 -23 -12 -35 -12 -9 -28 -30 -37 -48 -9 -18 -25 -37
-36 -43 -12 -6 -20 -21 -20 -35 0 -25 1 -25 90 -25 90 0 91 0 124 34 32 31 34
37 31 91 -3 51 0 62 29 103 44 63 48 76 30 117 -8 19 -11 35 -6 35 13 0 54 60
57 83 3 31 26 77 38 77 6 0 7 19 3 48 -5 43 -4 48 14 49 11 1 20 -2 20 -8 0
-5 9 -9 21 -9 12 0 19 5 16 13 -2 6 -12 12 -23 12 -10 0 -20 8 -22 18 -4 20
16 22 41 3 10 -8 17 -27 17 -49 0 -22 6 -37 15 -41 8 -3 15 -12 15 -21 0 -8 5
-15 11 -15 7 0 18 -8 25 -18 13 -16 13 -16 14 1 0 9 6 17 14 17 7 0 19 6 25
14 7 8 35 20 64 27 29 6 63 16 77 22 24 9 24 10 5 17 -20 8 -20 8 -1 16 13 5
21 3 24 -4 2 -7 10 -12 18 -12 8 0 14 -4 14 -10 0 -14 13 -12 36 4 18 14 18
15 -10 45 l-29 30 23 19 24 19 -24 13 c-23 12 -23 13 -5 26 17 12 17 14 2 14
-9 0 -17 5 -17 10 0 6 5 10 10 10 6 0 24 32 41 70 23 50 37 70 50 70 11 0 19
4 19 8 0 5 11 14 24 20 31 14 36 2 36 -81 0 -64 -44 -202 -61 -191 -5 3 -9 0
-9 -5 0 -6 -7 -11 -15 -11 -20 0 -19 -10 2 -25 16 -12 16 -15 1 -46 -24 -50
-36 -81 -43 -109 -4 -14 -16 -45 -27 -70 -12 -25 -26 -58 -33 -75 -23 -56 -38
-85 -57 -104 -10 -11 -18 -27 -18 -35 0 -8 -3 -16 -8 -18 -12 -5 -152 -183
-152 -193 0 -3 410 -5 910 -5 l910 0 0 3310 0 3310 -3310 0 -3310 0 0 -3310z
m3330 2609 c10 -6 4 -8 -22 -9 -20 0 -40 -5 -43 -11 -11 -17 0 -20 34 -8 24 9
44 8 79 -1 81 -21 79 -19 52 -41 l-25 -21 57 6 c34 4 59 2 63 -4 3 -5 -3 -10
-14 -10 -11 0 -23 -5 -26 -10 -4 -6 -16 -8 -28 -4 -12 4 -42 8 -67 9 -25 1
-52 3 -60 4 -18 1 -25 41 -7 41 8 0 8 3 0 11 -8 8 -17 8 -32 -1 -33 -17 -166
-27 -156 -11 4 7 16 11 26 8 10 -3 23 1 30 9 6 8 18 14 26 14 8 0 12 4 8 9 -3
5 2 17 11 26 17 16 60 14 94 -6z m-373 -95 c12 -8 29 -14 37 -14 26 0 29 -20
5 -41 -12 -10 -27 -19 -33 -19 -6 0 -20 -9 -30 -21 -14 -17 -24 -20 -54 -14
-20 4 -38 8 -38 8 -1 1 -5 12 -8 25 -5 16 -3 24 9 28 9 4 22 22 30 41 16 37
32 38 82 7z m2012 -4698 c-13 -14 -11 -26 5 -26 33 0 26 -80 -7 -80 -7 0 -2
-8 9 -18 21 -17 39 -62 24 -62 -4 0 -13 -21 -20 -46 -9 -31 -21 -49 -37 -57
-15 -6 -23 -19 -23 -35 0 -14 -12 -34 -30 -50 -16 -15 -30 -34 -30 -43 0 -10
-13 -23 -30 -31 -17 -7 -30 -21 -30 -30 0 -22 -21 -15 -60 22 -31 29 -28 39
13 53 25 9 21 22 -20 63 -22 23 -32 39 -25 42 7 2 12 10 12 18 0 8 7 14 15 14
11 0 14 7 9 24 -3 13 -1 27 5 30 6 4 11 15 11 25 0 12 9 20 26 24 18 3 24 1
20 -9 -3 -8 -2 -14 3 -14 5 0 12 16 15 35 4 19 13 38 20 42 8 5 26 31 41 58
15 28 37 60 48 72 19 21 21 21 33 5 8 -10 9 -21 3 -26z"/>
</g>
</svg>
